HIERARCHY
ROOT Hips
{
	OFFSET	0.00	0.00	0.00
	CHANNELS 6 Xposition Yposition Zposition Zrotation Xrotation Yrotation
	JOINT LeftUpLeg
	{
		OFFSET	 0.126116	-0.014019	-0.065224
		CHANNELS 3 Zrotation Xrotation Yrotation
		JOINT LeftLeg
		{
			OFFSET	 0.000000	 0.000000	 0.569914
			CHANNELS 3 Zrotation Xrotation Yrotation
			JOINT LeftFoot
			{
				OFFSET	 0.000000	 0.000000	 0.544423
				CHANNELS 3 Zrotation Xrotation Yrotation
				JOINT LeftToeBase
				{
					OFFSET	 0.000000	 0.000000	 0.207117
					CHANNELS 3 Zrotation Xrotation Yrotation
					End Site
					{
						OFFSET	 0.000000	 0.000000	 0.207117
					}
				}
			}
		}
	}
	JOINT RightUpLeg
	{
		OFFSET	-0.124023	-0.008373	-0.065224
		CHANNELS 3 Zrotation Xrotation Yrotation
		JOINT RightLeg
		{
			OFFSET	 0.000000	 0.000000	 0.570047
			CHANNELS 3 Zrotation Xrotation Yrotation
			JOINT RightFoot
			{
				OFFSET	 0.000000	 0.000000	 0.544354
				CHANNELS 3 Zrotation Xrotation Yrotation
				JOINT RightToeBase
				{
					OFFSET	 0.000000	 0.000000	 0.207540
					CHANNELS 3 Zrotation Xrotation Yrotation
					End Site
					{
						OFFSET	 0.000000	 0.000000	 0.207540
					}
				}
			}
		}
	}
	JOINT Spine
	{
		OFFSET	 0.000184	-0.007763	 0.117403
		CHANNELS 3 Zrotation Xrotation Yrotation
		JOINT Spine1
		{
			OFFSET	 0.000000	 0.000000	 0.137269
			CHANNELS 3 Zrotation Xrotation Yrotation
			JOINT Spine2
			{
				OFFSET	 0.000000	 0.000000	 0.156879
				CHANNELS 3 Zrotation Xrotation Yrotation
				JOINT LeftShoulder
				{
					OFFSET	 0.080501	-0.002496	 0.160144
					CHANNELS 3 Zrotation Xrotation Yrotation
					JOINT LeftArm
					{
						OFFSET	 0.000000	 0.000000	 0.164363
						CHANNELS 3 Zrotation Xrotation Yrotation
						JOINT LeftForeArm
						{
							OFFSET	 0.000000	 0.000000	 0.364576
							CHANNELS 3 Zrotation Xrotation Yrotation
							JOINT LeftHand
							{
								OFFSET	 0.000000	 0.000000	 0.360812
								CHANNELS 3 Zrotation Xrotation Yrotation
								JOINT LeftHandIndex1
								{
									OFFSET	 0.000000	 0.000000	 0.086006
									CHANNELS 3 Zrotation Xrotation Yrotation
									JOINT LeftHandIndex2
									{
										OFFSET	 0.000000	 0.000000	 0.047236
										CHANNELS 3 Zrotation Xrotation Yrotation
										JOINT LeftHandIndex3
										{
											OFFSET	-0.004284	-0.000551	 0.038166
											CHANNELS 3 Zrotation Xrotation Yrotation
											End Site
											{
												OFFSET	-0.004284	-0.000551	 0.038166
											}
										}
									}
								}
							}
						}
					}
				}
				JOINT Neck
				{
					OFFSET	 0.000000	 0.000000	 0.176489
					CHANNELS 3 Zrotation Xrotation Yrotation
					JOINT Head
					{
						OFFSET	 0.000000	-0.001747	 0.077940
						CHANNELS 3 Zrotation Xrotation Yrotation
						End Site
						{
							OFFSET	 0.000000	-0.001747	 0.077940
						}
					}
				}
				JOINT RightShoulder
				{
					OFFSET	-0.080363	 0.000306	 0.159706
					CHANNELS 3 Zrotation Xrotation Yrotation
					JOINT RightArm
					{
						OFFSET	 0.000000	 0.000000	 0.164196
						CHANNELS 3 Zrotation Xrotation Yrotation
						JOINT RightForeArm
						{
							OFFSET	 0.000000	 0.000000	 0.365611
							CHANNELS 3 Zrotation Xrotation Yrotation
							JOINT RightHand
							{
								OFFSET	 0.000000	 0.000000	 0.360648
								CHANNELS 3 Zrotation Xrotation Yrotation
								JOINT RightHandIndex1
								{
									OFFSET	 0.000000	 0.000000	 0.069977
									CHANNELS 3 Zrotation Xrotation Yrotation
									JOINT RightHandIndex2
									{
										OFFSET	 0.000000	 0.000000	 0.052305
										CHANNELS 3 Zrotation Xrotation Yrotation
										JOINT RightHandIndex3
										{
											OFFSET	 0.009002	-0.000782	 0.042196
											CHANNELS 3 Zrotation Xrotation Yrotation
											End Site
											{
												OFFSET	 0.009002	-0.000782	 0.042196
											}
										}
									}
								}
							}
						}
					}
				}
			}
		}
	}
}
MOTION
Frames:    8
Frame Time: 0.03333334
 0.011432	 0.052947	 1.198743	 4.626357	-1.602627	-3.682573	 10.130650	-10.945650	-173.294600	 0.728456	-39.595620	 0.192294	 59.492880	 82.052160	-63.183700	-2.370428	 31.443430	-0.066038	-13.941130	-31.385580	-174.759400	 10.667710	-52.572460	 9.117819	 9.993979	 74.037510	-4.802563	 2.358379	 33.086820	 0.105241	 1.155227	 8.906401	 0.778912	 1.934800	 3.129026	 3.421090	-9.465262	-2.439390	-4.350710	-93.866490	 58.902290	 175.549400	 16.485680	 35.066440	-37.822880	-1.239285	-0.051261	-0.635697	 0.787863	-6.355127	-6.735954	-4.870526	 19.224520	-2.787826	-3.882492	 21.460450	 2.203737	-4.807149	 5.558644	 0.146201	-0.098018	-5.048723	 0.172876	-11.448840	 1.743345	 2.079031	 89.802700	 61.618470	-179.951000	-18.807100	 49.597980	 9.182128	-1.098631	-2.206122	 11.942760	-4.926308	 8.063169	 0.659213	 6.297929	 25.320380	-0.556756	 1.821938	 45.209330	-6.936377	 0.457317	 24.577870	 3.603366
 0.010912	 0.041479	 1.196459	 4.977568	-1.432796	-3.668241	 9.849678	-10.765920	-173.475500	 0.902330	-40.007360	 0.353343	 63.740640	 82.516430	-67.616290	-2.369818	 31.545160	-0.068343	-14.955820	-32.613640	-175.103000	 10.824180	-51.638490	 9.129360	 10.883240	 75.748510	-5.969958	 2.358736	 33.034550	 0.104021	 0.319038	 8.872434	 0.731117	 1.903708	 2.934168	 3.426127	-9.482894	-2.272012	-4.295520	-93.931480	 58.939690	 175.406300	 16.110590	 34.207120	-38.250020	-1.786930	-0.044864	-0.720291	 0.906838	-6.421711	-7.310440	-4.870234	 19.238020	-2.790024	-3.879650	 21.496820	 2.200845	-4.806489	 5.566353	 0.145746	-0.078628	-5.071868	 0.182758	-11.413140	 1.834935	 2.015779	 89.782320	 61.643810	-179.999500	-18.678870	 49.857640	 8.454625	-0.986943	-2.255450	 12.422160	-4.887449	 8.290634	 0.577738	 6.293604	 24.859020	-0.542752	 1.884820	 44.706170	-6.992506	 0.529464	 24.262170	 3.566653
 0.010060	 0.021511	 1.192895	 5.444699	-1.072868	-3.667495	 9.571122	-10.371680	-173.743400	 1.149313	-40.494390	 0.517306	 71.098500	 83.136960	-75.144360	-2.369017	 31.678970	-0.071372	-16.570140	-34.535930	-175.807000	 11.054280	-49.493790	 9.035041	 10.763590	 77.483530	-6.268616	 2.358957	 33.002290	 0.103275	-0.881763	 8.713051	 0.656642	 1.829703	 2.707946	 3.455622	-9.486146	-2.065089	-4.228590	-94.037810	 58.969280	 175.175800	 15.316480	 32.773540	-38.902840	-2.384578	-0.036212	-0.849387	 1.200165	-6.578997	-7.843570	-4.867424	 19.312920	-2.795546	-3.874022	 21.568680	 2.195130	-4.805218	 5.581358	 0.144868	-0.053978	-5.094015	 0.209797	-11.351660	 1.975509	 1.961165	 89.743200	 61.709150	 179.907100	-18.490700	 50.293130	 7.379373	-0.955421	-2.306455	 12.875000	-4.919689	 8.628319	 0.424895	 6.284162	 24.110100	-0.543791	 1.977064	 43.949610	-7.074554	 0.679013	 23.602100	 3.491590
 0.008938	-0.004238	 1.188569	 5.943710	-0.613166	-3.678506	 9.237051	-9.726680	-174.096700	 1.366433	-40.870610	 0.663367	 81.258950	 83.738010	-85.428990	-2.368157	 31.820670	-0.074584	-18.502050	-36.492470	-176.865400	 11.094580	-46.033910	 8.589725	 10.315020	 79.027660	-6.377230	 2.359047	 32.989050	 0.102969	-2.245201	 8.477972	 0.572528	 1.714774	 2.497092	 3.484431	-9.453694	-1.863612	-4.148295	-94.162380	 58.989590	 174.907500	 14.224420	 31.015270	-39.665580	-2.937071	-0.025595	-0.996897	 1.569802	-6.779548	-8.282646	-4.863041	 19.424980	-2.802903	-3.866971	 21.658540	 2.187966	-4.803630	 5.600031	 0.143779	-0.028352	-5.112698	 0.246500	-11.253030	 2.137489	 1.921274	 89.694960	 61.796680	 179.791000	-18.268340	 50.795740	 6.272193	-1.000079	-2.288738	 12.908350	-4.998278	 9.008816	 0.235701	 6.271832	 23.235540	-0.556089	 2.078201	 43.094020	-7.164098	 0.866755	 22.762570	 3.399376
 0.007908	-0.032019	 1.183881	 6.245003	-0.171080	-3.825304	 9.098056	-8.762457	-174.367500	 1.511507	-40.962470	 0.759717	 93.520840	 84.149610	-97.750050	-2.366884	 32.026000	-0.079270	-19.798080	-38.032320	-177.826800	 10.964460	-41.719790	 7.862092	 8.556808	 78.620380	-5.218478	 2.360093	 32.833340	 0.099362	-3.507428	 8.201559	 0.638641	 1.592905	 2.447358	 3.465457	-9.363819	-1.708903	-4.051414	-94.270270	 58.990450	 174.677300	 13.017430	 29.234020	-40.472340	-3.725703	-0.010877	-1.146478	 1.615686	-7.105057	-8.162786	-4.855049	 19.609830	-2.811080	-3.857877	 21.774170	 2.178724	-4.799067	 5.653849	 0.140624	-0.014521	-5.146512	 0.281692	-11.131970	 2.295664	 1.930293	 89.627280	 61.881240	 179.627600	-17.988990	 51.231000	 5.462399	-1.269538	-2.195819	 12.312940	-5.196582	 9.425941	-0.219195	 6.255571	 22.245470	-0.586199	 2.172509	 42.270580	-7.247178	 1.089217	 21.752130	 3.293086
 0.006924	-0.056881	 1.179303	 6.453221	 0.213222	-3.992711	 9.027448	-7.826280	-174.592500	 1.617271	-40.948340	 0.828832	 105.341700	 84.296690	-109.603400	-2.365635	 32.225980	-0.083835	-20.707930	-39.060960	-178.646800	 10.832410	-37.626570	 7.137033	 7.177310	 77.750340	-4.378404	 2.361291	 32.653720	 0.095202	-4.609131	 7.943185	 0.740442	 1.476524	 2.416856	 3.429992	-9.245825	-1.574800	-3.951412	-94.360570	 58.985550	 174.485600	 11.976590	 27.769970	-41.134570	-4.489787	 0.004559	-1.276871	 1.553986	-7.426331	-7.888969	-4.846886	 19.794500	-2.818588	-3.849232	 21.883820	 2.169942	-4.794150	 5.711714	 0.137230	-0.005827	-5.180844	 0.312346	-10.997260	 2.434050	 1.953651	 89.561970	 61.954950	 179.469300	-17.705630	 51.540890	 5.007879	-1.582877	-2.027438	 11.318660	-5.399962	 9.804941	-0.701154	 6.239686	 21.337910	-0.618070	 2.252308	 41.553820	-7.317147	 1.293395	 20.809930	 3.198455
 0.005669	-0.083983	 1.173500	 6.565613	 0.477590	-4.162821	 9.028072	-6.635942	-174.898200	 1.699235	-40.952280	 0.882638	 117.157900	 84.315320	-121.399300	-2.362387	 32.727630	-0.095367	-20.994890	-40.005300	-179.306400	 10.420570	-33.846370	 6.323507	 10.850570	 79.619790	-8.590146	 2.357692	 33.187110	 0.107573	-5.866504	 7.707659	 0.879241	 1.352355	 2.516930	 3.313820	-9.041671	-1.443734	-3.789241	-94.424300	 58.974330	 174.351500	 10.813590	 26.459370	-41.772380	-5.279788	 0.023252	-1.430171	 1.345595	-7.544629	-7.594515	-4.836087	 20.013870	-2.821574	-3.837009	 22.038110	 2.157528	-4.782987	 5.842908	 0.129514	 0.008526	-5.229877	 0.330700	-10.781190	 2.576927	 1.960144	 89.499950	 62.007620	 179.318300	-17.226390	 51.781870	 4.648582	-2.008953	-1.788280	 9.977491	-5.557943	 10.112510	-1.456404	 6.217944	 20.174570	-0.663806	 2.393390	 40.239760	-7.440063	 1.541873	 19.644520	 3.087152
 0.004229	-0.109174	 1.166839	 6.637060	 0.681919	-4.323000	 9.055185	-5.511292	-175.217600	 1.772395	-41.089680	 0.933175	 128.369800	 84.147740	-132.576100	-2.358472	 33.306970	-0.108795	-20.663350	-41.496300	-179.642900	 10.270060	-31.802540	 5.863965	 22.539720	 82.880930	-20.742390	 2.352302	 33.944520	 0.125344	-7.114616	 7.492455	 1.024268	 1.232250	 2.640705	 3.177834	-8.793840	-1.320132	-3.609452	-94.474560	 58.961560	 174.246500	 9.780004	 25.434040	-42.332980	-6.031626	 0.043837	-1.581767	 1.092686	-7.584580	-7.310388	-4.824986	 20.232170	-2.822763	-3.824229	 22.198930	 2.144538	-4.770246	 5.992393	 0.120680	 0.024039	-5.281167	 0.343546	-10.523540	 2.709939	 1.961774	 89.442860	 62.049480	 179.179200	-16.693240	 51.953210	 4.296421	-2.440930	-1.564823	 8.813080	-5.678820	 10.376330	-2.265288	 6.194760	 18.990980	-0.711764	 2.541620	 38.791400	-7.568044	 1.787953	 18.470360	 2.981232
